<svg width="351" height="345" viewBox="0 0 351 345" fill="none" xmlns="http://www.w3.org/2000/svg">
<g filter="url(#filter0_d_1323_3876)">
<ellipse cx="137.978" cy="14.6368" rx="7.27473" ry="6.01336" fill="#4AACFF"/>
<path d="M137.978 21.6501C142.361 21.6501 146.253 18.6799 146.253 14.6368C146.253 10.5937 142.361 7.62341 137.978 7.62341C133.594 7.62341 129.703 10.5937 129.703 14.6368C129.703 18.6799 133.594 21.6501 137.978 21.6501Z" stroke="white" stroke-width="2"/>
</g>
<g filter="url(#filter1_d_1323_3876)">
<ellipse cx="155.41" cy="16.3946" rx="7.27473" ry="6.01336" fill="#4AACFF"/>
<path d="M155.409 23.408C159.793 23.408 163.684 20.4377 163.684 16.3946C163.684 12.3515 159.793 9.38123 155.409 9.38123C151.026 9.38123 147.135 12.3515 147.135 16.3946C147.135 20.4377 151.026 23.408 155.409 23.408Z" stroke="white" stroke-width="2"/>
</g>
<g filter="url(#filter2_d_1323_3876)">
<ellipse cx="44.3939" cy="65.4669" rx="7.27473" ry="6.01336" fill="#4AACFF"/>
<path d="M44.3939 72.4802C48.7772 72.4802 52.6686 69.51 52.6686 65.4669C52.6686 61.4237 48.7772 58.4535 44.3939 58.4535C40.0105 58.4535 36.1191 61.4237 36.1191 65.4669C36.1191 69.51 40.0105 72.4802 44.3939 72.4802Z" stroke="white" stroke-width="2"/>
</g>
<g filter="url(#filter3_d_1323_3876)">
<ellipse cx="195.86" cy="61.1456" rx="7.27473" ry="6.01336" fill="#4AACFF"/>
<path d="M195.86 68.1589C200.243 68.1589 204.134 65.1887 204.134 61.1456C204.134 57.1024 200.243 54.1322 195.86 54.1322C191.476 54.1322 187.585 57.1024 187.585 61.1456C187.585 65.1887 191.476 68.1589 195.86 68.1589Z" stroke="white" stroke-width="2"/>
</g>
<g filter="url(#filter4_d_1323_3876)">
<ellipse cx="209.999" cy="67.6641" rx="7.27473" ry="6.01336" fill="#4AACFF"/>
<path d="M209.999 74.6775C214.383 74.6775 218.274 71.7072 218.274 67.6641C218.274 63.621 214.383 60.6508 209.999 60.6508C205.616 60.6508 201.725 63.621 201.725 67.6641C201.725 71.7072 205.616 74.6775 209.999 74.6775Z" stroke="white" stroke-width="2"/>
</g>
<g filter="url(#filter5_d_1323_3876)">
<ellipse cx="199.394" cy="67.6641" rx="7.27473" ry="6.01336" fill="#4AACFF"/>
<path d="M199.394 74.6775C203.778 74.6775 207.669 71.7072 207.669 67.6641C207.669 63.621 203.778 60.6508 199.394 60.6508C195.011 60.6508 191.12 63.621 191.12 67.6641C191.12 71.7072 195.011 74.6775 199.394 74.6775Z" stroke="white" stroke-width="2"/>
</g>
<g filter="url(#filter6_d_1323_3876)">
<ellipse cx="212.155" cy="48.6944" rx="7.27473" ry="6.01336" fill="#4AACFF"/>
<path d="M212.155 55.7078C216.538 55.7078 220.429 52.7375 220.429 48.6944C220.429 44.6513 216.538 41.681 212.155 41.681C207.771 41.681 203.88 44.6513 203.88 48.6944C203.88 52.7375 207.771 55.7078 212.155 55.7078Z" stroke="white" stroke-width="2"/>
</g>
<g filter="url(#filter7_d_1323_3876)">
<ellipse cx="334.844" cy="121.79" rx="7.27473" ry="6.01336" fill="#4AACFF"/>
<path d="M334.844 128.803C339.227 128.803 343.118 125.833 343.118 121.79C343.118 117.747 339.227 114.777 334.844 114.777C330.46 114.777 326.569 117.747 326.569 121.79C326.569 125.833 330.46 128.803 334.844 128.803Z" stroke="white" stroke-width="2"/>
</g>
<g filter="url(#filter8_d_1323_3876)">
<ellipse cx="212.155" cy="203.236" rx="7.27473" ry="6.01336" fill="#4AACFF"/>
<path d="M212.155 210.249C216.538 210.249 220.429 207.279 220.429 203.236C220.429 199.192 216.538 196.222 212.155 196.222C207.771 196.222 203.88 199.192 203.88 203.236C203.88 207.279 207.771 210.249 212.155 210.249Z" stroke="white" stroke-width="2"/>
</g>
<g filter="url(#filter9_d_1323_3876)">
<ellipse cx="162.148" cy="330.75" rx="7.27473" ry="6.01336" fill="#4AACFF"/>
<path d="M162.148 337.764C166.532 337.764 170.423 334.793 170.423 330.75C170.423 326.707 166.532 323.737 162.148 323.737C157.765 323.737 153.874 326.707 153.874 330.75C153.874 334.793 157.765 337.764 162.148 337.764Z" stroke="white" stroke-width="2"/>
</g>
<g filter="url(#filter10_d_1323_3876)">
<ellipse cx="174.343" cy="322.694" rx="7.27473" ry="6.01336" fill="#4AACFF"/>
<path d="M174.343 329.707C178.726 329.707 182.618 326.737 182.618 322.694C182.618 318.65 178.726 315.68 174.343 315.68C169.96 315.68 166.068 318.65 166.068 322.694C166.068 326.737 169.96 329.707 174.343 329.707Z" stroke="white" stroke-width="2"/>
</g>
<g filter="url(#filter11_d_1323_3876)">
<ellipse cx="16.0447" cy="169.764" rx="7.27473" ry="6.01336" fill="#4AACFF"/>
<path d="M16.0447 176.777C20.4281 176.777 24.3195 173.807 24.3195 169.764C24.3195 165.721 20.4281 162.75 16.0447 162.75C11.6614 162.75 7.77002 165.721 7.77002 169.764C7.77002 173.807 11.6614 176.777 16.0447 176.777Z" stroke="white" stroke-width="2"/>
</g>
<g filter="url(#filter12_d_1323_3876)">
<ellipse cx="162.266" cy="64.1022" rx="9.69964" ry="8.01782" fill="#4AACFF"/>
<path d="M162.266 73.12C167.988 73.12 172.965 69.2523 172.965 64.1022C172.965 58.952 167.988 55.0844 162.266 55.0844C156.543 55.0844 151.566 58.952 151.566 64.1022C151.566 69.2523 156.543 73.12 162.266 73.12Z" stroke="white" stroke-width="2"/>
</g>
<defs>
<filter id="filter0_d_1323_3876" x="122.703" y="0.623413" width="30.5493" height="28.0267" filterUnits="userSpaceOnUse" color-interpolation-filters="sRGB">
<feFlood flood-opacity="0" result="BackgroundImageFix"/>
<feColorMatrix in="SourceAlpha" type="matrix" values="0 0 0 0 0 0 0 0 0 0 0 0 0 0 0 0 0 0 127 0" result="hardAlpha"/>
<feOffset/>
<feGaussianBlur stdDeviation="3"/>
<feComposite in2="hardAlpha" operator="out"/>
<feColorMatrix type="matrix" values="0 0 0 0 0.1875 0 0 0 0 0.1875 0 0 0 0 0.1875 0 0 0 0.27 0"/>
<feBlend mode="normal" in2="BackgroundImageFix" result="effect1_dropShadow_1323_3876"/>
<feBlend mode="normal" in="SourceGraphic" in2="effect1_dropShadow_1323_3876" result="shape"/>
</filter>
<filter id="filter1_d_1323_3876" x="140.135" y="2.38123" width="30.5493" height="28.0267" filterUnits="userSpaceOnUse" color-interpolation-filters="sRGB">
<feFlood flood-opacity="0" result="BackgroundImageFix"/>
<feColorMatrix in="SourceAlpha" type="matrix" values="0 0 0 0 0 0 0 0 0 0 0 0 0 0 0 0 0 0 127 0" result="hardAlpha"/>
<feOffset/>
<feGaussianBlur stdDeviation="3"/>
<feComposite in2="hardAlpha" operator="out"/>
<feColorMatrix type="matrix" values="0 0 0 0 0.1875 0 0 0 0 0.1875 0 0 0 0 0.1875 0 0 0 0.27 0"/>
<feBlend mode="normal" in2="BackgroundImageFix" result="effect1_dropShadow_1323_3876"/>
<feBlend mode="normal" in="SourceGraphic" in2="effect1_dropShadow_1323_3876" result="shape"/>
</filter>
<filter id="filter2_d_1323_3876" x="29.1191" y="51.4535" width="30.5493" height="28.0267" filterUnits="userSpaceOnUse" color-interpolation-filters="sRGB">
<feFlood flood-opacity="0" result="BackgroundImageFix"/>
<feColorMatrix in="SourceAlpha" type="matrix" values="0 0 0 0 0 0 0 0 0 0 0 0 0 0 0 0 0 0 127 0" result="hardAlpha"/>
<feOffset/>
<feGaussianBlur stdDeviation="3"/>
<feComposite in2="hardAlpha" operator="out"/>
<feColorMatrix type="matrix" values="0 0 0 0 0.1875 0 0 0 0 0.1875 0 0 0 0 0.1875 0 0 0 0.27 0"/>
<feBlend mode="normal" in2="BackgroundImageFix" result="effect1_dropShadow_1323_3876"/>
<feBlend mode="normal" in="SourceGraphic" in2="effect1_dropShadow_1323_3876" result="shape"/>
</filter>
<filter id="filter3_d_1323_3876" x="180.585" y="47.1322" width="30.5493" height="28.0267" filterUnits="userSpaceOnUse" color-interpolation-filters="sRGB">
<feFlood flood-opacity="0" result="BackgroundImageFix"/>
<feColorMatrix in="SourceAlpha" type="matrix" values="0 0 0 0 0 0 0 0 0 0 0 0 0 0 0 0 0 0 127 0" result="hardAlpha"/>
<feOffset/>
<feGaussianBlur stdDeviation="3"/>
<feComposite in2="hardAlpha" operator="out"/>
<feColorMatrix type="matrix" values="0 0 0 0 0.1875 0 0 0 0 0.1875 0 0 0 0 0.1875 0 0 0 0.27 0"/>
<feBlend mode="normal" in2="BackgroundImageFix" result="effect1_dropShadow_1323_3876"/>
<feBlend mode="normal" in="SourceGraphic" in2="effect1_dropShadow_1323_3876" result="shape"/>
</filter>
<filter id="filter4_d_1323_3876" x="194.725" y="53.6508" width="30.5493" height="28.0267" filterUnits="userSpaceOnUse" color-interpolation-filters="sRGB">
<feFlood flood-opacity="0" result="BackgroundImageFix"/>
<feColorMatrix in="SourceAlpha" type="matrix" values="0 0 0 0 0 0 0 0 0 0 0 0 0 0 0 0 0 0 127 0" result="hardAlpha"/>
<feOffset/>
<feGaussianBlur stdDeviation="3"/>
<feComposite in2="hardAlpha" operator="out"/>
<feColorMatrix type="matrix" values="0 0 0 0 0.1875 0 0 0 0 0.1875 0 0 0 0 0.1875 0 0 0 0.27 0"/>
<feBlend mode="normal" in2="BackgroundImageFix" result="effect1_dropShadow_1323_3876"/>
<feBlend mode="normal" in="SourceGraphic" in2="effect1_dropShadow_1323_3876" result="shape"/>
</filter>
<filter id="filter5_d_1323_3876" x="184.12" y="53.6508" width="30.5493" height="28.0267" filterUnits="userSpaceOnUse" color-interpolation-filters="sRGB">
<feFlood flood-opacity="0" result="BackgroundImageFix"/>
<feColorMatrix in="SourceAlpha" type="matrix" values="0 0 0 0 0 0 0 0 0 0 0 0 0 0 0 0 0 0 127 0" result="hardAlpha"/>
<feOffset/>
<feGaussianBlur stdDeviation="3"/>
<feComposite in2="hardAlpha" operator="out"/>
<feColorMatrix type="matrix" values="0 0 0 0 0.1875 0 0 0 0 0.1875 0 0 0 0 0.1875 0 0 0 0.27 0"/>
<feBlend mode="normal" in2="BackgroundImageFix" result="effect1_dropShadow_1323_3876"/>
<feBlend mode="normal" in="SourceGraphic" in2="effect1_dropShadow_1323_3876" result="shape"/>
</filter>
<filter id="filter6_d_1323_3876" x="196.88" y="34.681" width="30.5493" height="28.0267" filterUnits="userSpaceOnUse" color-interpolation-filters="sRGB">
<feFlood flood-opacity="0" result="BackgroundImageFix"/>
<feColorMatrix in="SourceAlpha" type="matrix" values="0 0 0 0 0 0 0 0 0 0 0 0 0 0 0 0 0 0 127 0" result="hardAlpha"/>
<feOffset/>
<feGaussianBlur stdDeviation="3"/>
<feComposite in2="hardAlpha" operator="out"/>
<feColorMatrix type="matrix" values="0 0 0 0 0.1875 0 0 0 0 0.1875 0 0 0 0 0.1875 0 0 0 0.27 0"/>
<feBlend mode="normal" in2="BackgroundImageFix" result="effect1_dropShadow_1323_3876"/>
<feBlend mode="normal" in="SourceGraphic" in2="effect1_dropShadow_1323_3876" result="shape"/>
</filter>
<filter id="filter7_d_1323_3876" x="319.569" y="107.777" width="30.5493" height="28.0267" filterUnits="userSpaceOnUse" color-interpolation-filters="sRGB">
<feFlood flood-opacity="0" result="BackgroundImageFix"/>
<feColorMatrix in="SourceAlpha" type="matrix" values="0 0 0 0 0 0 0 0 0 0 0 0 0 0 0 0 0 0 127 0" result="hardAlpha"/>
<feOffset/>
<feGaussianBlur stdDeviation="3"/>
<feComposite in2="hardAlpha" operator="out"/>
<feColorMatrix type="matrix" values="0 0 0 0 0.1875 0 0 0 0 0.1875 0 0 0 0 0.1875 0 0 0 0.27 0"/>
<feBlend mode="normal" in2="BackgroundImageFix" result="effect1_dropShadow_1323_3876"/>
<feBlend mode="normal" in="SourceGraphic" in2="effect1_dropShadow_1323_3876" result="shape"/>
</filter>
<filter id="filter8_d_1323_3876" x="196.88" y="189.222" width="30.5493" height="28.0266" filterUnits="userSpaceOnUse" color-interpolation-filters="sRGB">
<feFlood flood-opacity="0" result="BackgroundImageFix"/>
<feColorMatrix in="SourceAlpha" type="matrix" values="0 0 0 0 0 0 0 0 0 0 0 0 0 0 0 0 0 0 127 0" result="hardAlpha"/>
<feOffset/>
<feGaussianBlur stdDeviation="3"/>
<feComposite in2="hardAlpha" operator="out"/>
<feColorMatrix type="matrix" values="0 0 0 0 0.1875 0 0 0 0 0.1875 0 0 0 0 0.1875 0 0 0 0.27 0"/>
<feBlend mode="normal" in2="BackgroundImageFix" result="effect1_dropShadow_1323_3876"/>
<feBlend mode="normal" in="SourceGraphic" in2="effect1_dropShadow_1323_3876" result="shape"/>
</filter>
<filter id="filter9_d_1323_3876" x="146.874" y="316.737" width="30.5493" height="28.0266" filterUnits="userSpaceOnUse" color-interpolation-filters="sRGB">
<feFlood flood-opacity="0" result="BackgroundImageFix"/>
<feColorMatrix in="SourceAlpha" type="matrix" values="0 0 0 0 0 0 0 0 0 0 0 0 0 0 0 0 0 0 127 0" result="hardAlpha"/>
<feOffset/>
<feGaussianBlur stdDeviation="3"/>
<feComposite in2="hardAlpha" operator="out"/>
<feColorMatrix type="matrix" values="0 0 0 0 0.1875 0 0 0 0 0.1875 0 0 0 0 0.1875 0 0 0 0.27 0"/>
<feBlend mode="normal" in2="BackgroundImageFix" result="effect1_dropShadow_1323_3876"/>
<feBlend mode="normal" in="SourceGraphic" in2="effect1_dropShadow_1323_3876" result="shape"/>
</filter>
<filter id="filter10_d_1323_3876" x="159.068" y="308.68" width="30.5493" height="28.0266" filterUnits="userSpaceOnUse" color-interpolation-filters="sRGB">
<feFlood flood-opacity="0" result="BackgroundImageFix"/>
<feColorMatrix in="SourceAlpha" type="matrix" values="0 0 0 0 0 0 0 0 0 0 0 0 0 0 0 0 0 0 127 0" result="hardAlpha"/>
<feOffset/>
<feGaussianBlur stdDeviation="3"/>
<feComposite in2="hardAlpha" operator="out"/>
<feColorMatrix type="matrix" values="0 0 0 0 0.1875 0 0 0 0 0.1875 0 0 0 0 0.1875 0 0 0 0.27 0"/>
<feBlend mode="normal" in2="BackgroundImageFix" result="effect1_dropShadow_1323_3876"/>
<feBlend mode="normal" in="SourceGraphic" in2="effect1_dropShadow_1323_3876" result="shape"/>
</filter>
<filter id="filter11_d_1323_3876" x="0.77002" y="155.75" width="30.5493" height="28.0266" filterUnits="userSpaceOnUse" color-interpolation-filters="sRGB">
<feFlood flood-opacity="0" result="BackgroundImageFix"/>
<feColorMatrix in="SourceAlpha" type="matrix" values="0 0 0 0 0 0 0 0 0 0 0 0 0 0 0 0 0 0 127 0" result="hardAlpha"/>
<feOffset/>
<feGaussianBlur stdDeviation="3"/>
<feComposite in2="hardAlpha" operator="out"/>
<feColorMatrix type="matrix" values="0 0 0 0 0.1875 0 0 0 0 0.1875 0 0 0 0 0.1875 0 0 0 0.27 0"/>
<feBlend mode="normal" in2="BackgroundImageFix" result="effect1_dropShadow_1323_3876"/>
<feBlend mode="normal" in="SourceGraphic" in2="effect1_dropShadow_1323_3876" result="shape"/>
</filter>
<filter id="filter12_d_1323_3876" x="130.566" y="34.0844" width="63.3994" height="60.0356" filterUnits="userSpaceOnUse" color-interpolation-filters="sRGB">
<feFlood flood-opacity="0" result="BackgroundImageFix"/>
<feColorMatrix in="SourceAlpha" type="matrix" values="0 0 0 0 0 0 0 0 0 0 0 0 0 0 0 0 0 0 127 0" result="hardAlpha"/>
<feOffset/>
<feGaussianBlur stdDeviation="10"/>
<feComposite in2="hardAlpha" operator="out"/>
<feColorMatrix type="matrix" values="0 0 0 0 0.160784 0 0 0 0 0.607843 0 0 0 0 0.847059 0 0 0 1 0"/>
<feBlend mode="normal" in2="BackgroundImageFix" result="effect1_dropShadow_1323_3876"/>
<feBlend mode="normal" in="SourceGraphic" in2="effect1_dropShadow_1323_3876" result="shape"/>
</filter>
</defs>
</svg>
