<svg width="30" height="31" viewBox="0 0 30 31" fill="none" xmlns="http://www.w3.org/2000/svg">
<g clip-path="url(#clip0_1003_25307)">
<path d="M15.0001 0.90332C7.0471 0.90332 0.600098 7.35032 0.600098 15.3033C0.600098 23.2563 7.0471 29.7033 15.0001 29.7033C22.9531 29.7033 29.4001 23.2563 29.4001 15.3033C29.4001 7.35032 22.9531 0.90332 15.0001 0.90332ZM18.4111 10.8543H16.2466C15.9901 10.8543 15.7051 11.1918 15.7051 11.6403V13.2033H18.4126L18.0031 15.4323H15.7051V22.1238H13.1506V15.4323H10.8331V13.2033H13.1506V11.8923C13.1506 10.0113 14.4556 8.48282 16.2466 8.48282H18.4111V10.8543V10.8543Z" fill="white"/>
</g>
<defs>
<clipPath id="clip0_1003_25307">
<rect width="30" height="30" fill="white" transform="translate(0 0.303223)"/>
</clipPath>
</defs>
</svg>
