<svg width="30" height="31" viewBox="0 0 30 31" fill="none" xmlns="http://www.w3.org/2000/svg">
<g clip-path="url(#clip0_1003_25311)">
<path d="M19.5001 15.3033C19.5001 16.4968 19.026 17.6414 18.1821 18.4853C17.3382 19.3292 16.1936 19.8033 15.0001 19.8033C13.8066 19.8033 12.662 19.3292 11.8181 18.4853C10.9742 17.6414 10.5001 16.4968 10.5001 15.3033C10.5001 15.0468 10.5271 14.7963 10.5736 14.5533H9.0001V20.5488C9.0001 20.9658 9.3376 21.3033 9.7546 21.3033H20.2471C20.4469 21.3029 20.6385 21.2233 20.7796 21.0818C20.9208 20.9404 21.0001 20.7487 21.0001 20.5488V14.5533H19.4266C19.4731 14.7963 19.5001 15.0468 19.5001 15.3033V15.3033ZM15.0001 18.3033C15.3942 18.3032 15.7844 18.2255 16.1484 18.0746C16.5124 17.9237 16.8432 17.7026 17.1217 17.4239C17.4003 17.1452 17.6213 16.8143 17.772 16.4502C17.9227 16.0861 18.0002 15.6959 18.0001 15.3018C18 14.9078 17.9223 14.5176 17.7714 14.1535C17.6205 13.7895 17.3994 13.4588 17.1207 13.1802C16.842 12.9016 16.5111 12.6807 16.147 12.53C15.7829 12.3792 15.3927 12.3017 14.9986 12.3018C14.2028 12.302 13.4396 12.6184 12.877 13.1813C12.3144 13.7441 11.9984 14.5075 11.9986 15.3033C11.9988 16.0992 12.3151 16.8623 12.878 17.425C13.4409 17.9876 14.2043 18.3035 15.0001 18.3033V18.3033ZM18.6001 12.1533H20.3986C20.5181 12.1533 20.6327 12.106 20.7173 12.0216C20.802 11.9373 20.8497 11.8228 20.8501 11.7033V9.90482C20.8501 9.78507 20.8025 9.67023 20.7179 9.58556C20.6332 9.50089 20.5183 9.45332 20.3986 9.45332H18.6001C18.4804 9.45332 18.3655 9.50089 18.2808 9.58556C18.1962 9.67023 18.1486 9.78507 18.1486 9.90482V11.7033C18.1501 11.9508 18.3526 12.1533 18.6001 12.1533V12.1533ZM15.0001 0.90332C11.181 0.90332 7.51828 2.42046 4.81776 5.12098C2.11724 7.82151 0.600098 11.4842 0.600098 15.3033C0.600098 19.1224 2.11724 22.7851 4.81776 25.4857C7.51828 28.1862 11.181 29.7033 15.0001 29.7033C16.8911 29.7033 18.7637 29.3309 20.5107 28.6072C22.2578 27.8835 23.8453 26.8228 25.1824 25.4857C26.5196 24.1485 27.5803 22.5611 28.304 20.814C29.0276 19.0669 29.4001 17.1944 29.4001 15.3033C29.4001 13.4123 29.0276 11.5398 28.304 9.79268C27.5803 8.04559 26.5196 6.45815 25.1824 5.12098C23.8453 3.78382 22.2578 2.72312 20.5107 1.99946C18.7637 1.27579 16.8911 0.90332 15.0001 0.90332V0.90332ZM22.5001 21.1368C22.5001 22.0533 21.7501 22.8033 20.8336 22.8033H9.1666C8.2501 22.8033 7.5001 22.0533 7.5001 21.1368V9.46982C7.5001 8.55332 8.2501 7.80332 9.1666 7.80332H20.8336C21.7501 7.80332 22.5001 8.55332 22.5001 9.46982V21.1368V21.1368Z" fill="white"/>
</g>
<defs>
<clipPath id="clip0_1003_25311">
<rect width="30" height="30" fill="white" transform="translate(0 0.303223)"/>
</clipPath>
</defs>
</svg>
