<svg width="30" height="31" viewBox="0 0 30 31" fill="none" xmlns="http://www.w3.org/2000/svg">
<g clip-path="url(#clip0_1003_25309)">
<path d="M15.0001 0.90332C7.0471 0.90332 0.600098 7.35032 0.600098 15.3033C0.600098 23.2563 7.0471 29.7033 15.0001 29.7033C22.9531 29.7033 29.4001 23.2563 29.4001 15.3033C29.4001 7.35032 22.9531 0.90332 15.0001 0.90332ZM20.8576 12.6993C20.8636 12.8223 20.8651 12.9453 20.8651 13.0653C20.8651 16.8153 18.0136 21.1368 12.7966 21.1368C11.255 21.1394 9.74555 20.6966 8.4496 19.8618C8.6701 19.8888 8.8966 19.8993 9.1261 19.8993C10.4551 19.8993 11.6776 19.4478 12.6481 18.6858C12.0567 18.6742 11.4836 18.4784 11.0088 18.1256C10.5339 17.7728 10.181 17.2807 9.9991 16.7178C10.4238 16.7986 10.8614 16.7817 11.2786 16.6683C10.6367 16.5385 10.0594 16.1907 9.64466 15.6838C9.22993 15.1769 9.00326 14.5422 9.0031 13.8873V13.8528C9.3856 14.0643 9.8236 14.1933 10.2886 14.2083C9.6868 13.8077 9.26078 13.1923 9.09767 12.488C8.93455 11.7837 9.04668 11.0437 9.4111 10.4193C10.1235 11.2953 11.012 12.0119 12.019 12.5228C13.0259 13.0336 14.1289 13.3273 15.2566 13.3848C15.1132 12.7763 15.1749 12.1374 15.4321 11.5676C15.6893 10.9977 16.1275 10.5288 16.6787 10.2337C17.2299 9.93863 17.8631 9.8339 18.4799 9.93583C19.0968 10.0378 19.6627 10.3406 20.0896 10.7973C20.7244 10.6717 21.3331 10.4389 21.8896 10.1088C21.678 10.766 21.2351 11.3241 20.6431 11.6793C21.2054 11.6116 21.7544 11.4604 22.2721 11.2308C21.8918 11.8007 21.4128 12.298 20.8576 12.6993V12.6993Z" fill="white"/>
</g>
<defs>
<clipPath id="clip0_1003_25309">
<rect width="30" height="30" fill="white" transform="translate(0 0.303223)"/>
</clipPath>
</defs>
</svg>
